<svg xmlns="http://www.w3.org/2000/svg" viewBox="0 0 64 64">
  <rect width="64" height="64" rx="14" fill="#0F0A27"/>
  <line x1="32.00" y1="20.77" x2="32.00" y2="2.56" stroke="#E8B84B" stroke-width="2" stroke-linecap="round"/>
  <line x1="36.30" y1="21.62" x2="40.82" y2="10.71" stroke="#E8B84B" stroke-width="1.1" stroke-linecap="round"/>
  <line x1="39.94" y1="24.06" x2="52.82" y2="11.18" stroke="#E8B84B" stroke-width="2" stroke-linecap="round"/>
  <line x1="42.38" y1="27.70" x2="53.29" y2="23.18" stroke="#E8B84B" stroke-width="1.1" stroke-linecap="round"/>
  <line x1="43.23" y1="32.00" x2="61.44" y2="32.00" stroke="#E8B84B" stroke-width="2" stroke-linecap="round"/>
  <line x1="42.38" y1="36.30" x2="53.29" y2="40.82" stroke="#E8B84B" stroke-width="1.1" stroke-linecap="round"/>
  <line x1="39.94" y1="39.94" x2="52.82" y2="52.82" stroke="#E8B84B" stroke-width="2" stroke-linecap="round"/>
  <line x1="36.30" y1="42.38" x2="40.82" y2="53.29" stroke="#E8B84B" stroke-width="1.1" stroke-linecap="round"/>
  <line x1="32.00" y1="43.23" x2="32.00" y2="61.44" stroke="#E8B84B" stroke-width="2" stroke-linecap="round"/>
  <line x1="27.70" y1="42.38" x2="23.18" y2="53.29" stroke="#E8B84B" stroke-width="1.1" stroke-linecap="round"/>
  <line x1="24.06" y1="39.94" x2="11.18" y2="52.82" stroke="#E8B84B" stroke-width="2" stroke-linecap="round"/>
  <line x1="21.62" y1="36.30" x2="10.71" y2="40.82" stroke="#E8B84B" stroke-width="1.1" stroke-linecap="round"/>
  <line x1="20.77" y1="32.00" x2="2.56" y2="32.00" stroke="#E8B84B" stroke-width="2" stroke-linecap="round"/>
  <line x1="21.62" y1="27.70" x2="10.71" y2="23.18" stroke="#E8B84B" stroke-width="1.1" stroke-linecap="round"/>
  <line x1="24.06" y1="24.06" x2="11.18" y2="11.18" stroke="#E8B84B" stroke-width="2" stroke-linecap="round"/>
  <line x1="27.70" y1="21.62" x2="23.18" y2="10.71" stroke="#E8B84B" stroke-width="1.1" stroke-linecap="round"/>
  <circle cx="32" cy="32" r="9.98" stroke="#E8B84B" stroke-width="1.4" fill="none"/>
  <circle cx="32" cy="32" r="8.32" stroke="#E8B84B" stroke-width="2" fill="none"/>
  <circle cx="32" cy="32" r="3.74" fill="#E8B84B"/>
  <line x1="32" y1="26.18" x2="32" y2="37.82" stroke="#0F0A27" stroke-width="1.8"/>
  <line x1="27.84" y1="30.75" x2="36.16" y2="30.75" stroke="#0F0A27" stroke-width="1.8"/>
</svg>
